<?xml version="1.0" encoding="utf-8"?>
<!-- Generator: Adobe Illustrator 21.0.0, SVG Export Plug-In . SVG Version: 6.00 Build 0)  -->
<svg version="1.1" id="Слой_1" xmlns="http://www.w3.org/2000/svg" xmlns:xlink="http://www.w3.org/1999/xlink" x="0px" y="0px"
	 viewBox="0 0 20 19.866" style="enable-background:new 0 0 20 19.866;" xml:space="preserve">
<style type="text/css">
	.st0{fill:#CFE3F9;}
	.st1{clip-path:url(#SVGID_2_);fill:#CFE3F9;}
	.st2{clip-path:url(#SVGID_4_);fill:#CFE3F9;}
	.st3{fill:none;stroke:#3D84F1;stroke-width:2;stroke-linecap:round;stroke-linejoin:round;stroke-miterlimit:10;}
	.st4{fill:none;stroke:#3D84F1;stroke-width:2;stroke-miterlimit:10;}
	.st5{clip-path:url(#SVGID_6_);fill:#CFE3F9;}
	.st6{clip-path:url(#SVGID_8_);fill:#CFE3F9;}
	
		.st7{clip-path:url(#SVGID_10_);fill:none;stroke:#3D84F1;stroke-width:2;stroke-linecap:round;stroke-linejoin:round;stroke-miterlimit:10;}
	.st8{clip-path:url(#SVGID_12_);fill:#CFE3F9;}
	.st9{fill-rule:evenodd;clip-rule:evenodd;fill:none;}
	.st10{clip-path:url(#SVGID_14_);fill:#CFE3F9;}
	.st11{fill:#FFFFFF;}
	.st12{clip-path:url(#SVGID_18_);fill:#FFFFFF;stroke:#3D84F1;stroke-width:2;stroke-miterlimit:10;}
	.st13{clip-path:url(#SVGID_20_);fill:#CFE3F9;}
	.st14{clip-path:url(#SVGID_24_);fill:#CFE3F9;}
	.st15{fill-rule:evenodd;clip-rule:evenodd;fill:#CFE3F9;}
	.st16{fill:#3D84F1;}
	.st17{clip-path:url(#SVGID_26_);fill:#CFE3F9;}
	.st18{fill:none;stroke:#3D84F1;stroke-width:2;stroke-linejoin:round;stroke-miterlimit:10;}
	.st19{clip-path:url(#SVGID_28_);fill:#CFE3F9;}
</style>
<g>
	<path class="st11" d="M20,10c0,4.756-3.323,8.729-7.773,9.742v-8.307h2.403V8.661h-2.427V8.042c0-1.189,0.52-2.155,1.758-2.155
		c0.496,0,0.893,0.075,1.215,0.174l0.148-2.898c-0.52-0.148-1.163-0.248-2.006-0.248c-1.09,0-2.403,0.323-3.344,1.215
		C8.884,5.12,8.439,6.729,8.439,8.19v0.47H6.853v2.774h1.585v8.432C3.659,19.115,0,14.991,0,10C0,4.478,4.478,0,10,0
		C15.523,0,20,4.477,20,10z"/>
</g>
</svg>
