<?xml version="1.0" encoding="utf-8"?>
<!-- Generator: Adobe Illustrator 21.0.0, SVG Export Plug-In . SVG Version: 6.00 Build 0)  -->
<svg version="1.1" id="Слой_1" xmlns="http://www.w3.org/2000/svg" xmlns:xlink="http://www.w3.org/1999/xlink" x="0px" y="0px"
	 viewBox="0 0 20 19.511" style="enable-background:new 0 0 20 19.511;" xml:space="preserve">
<style type="text/css">
	.st0{fill:#CFE3F9;}
	.st1{clip-path:url(#SVGID_2_);fill:#CFE3F9;}
	.st2{clip-path:url(#SVGID_4_);fill:#CFE3F9;}
	.st3{fill:none;stroke:#3D84F1;stroke-width:2;stroke-linecap:round;stroke-linejoin:round;stroke-miterlimit:10;}
	.st4{fill:none;stroke:#3D84F1;stroke-width:2;stroke-miterlimit:10;}
	.st5{clip-path:url(#SVGID_6_);fill:#CFE3F9;}
	.st6{clip-path:url(#SVGID_8_);fill:#CFE3F9;}
	
		.st7{clip-path:url(#SVGID_10_);fill:none;stroke:#3D84F1;stroke-width:2;stroke-linecap:round;stroke-linejoin:round;stroke-miterlimit:10;}
	.st8{clip-path:url(#SVGID_12_);fill:#CFE3F9;}
	.st9{fill-rule:evenodd;clip-rule:evenodd;fill:none;}
	.st10{clip-path:url(#SVGID_14_);fill:#CFE3F9;}
	.st11{fill:#FFFFFF;}
	.st12{clip-path:url(#SVGID_18_);fill:#FFFFFF;stroke:#3D84F1;stroke-width:2;stroke-miterlimit:10;}
	.st13{clip-path:url(#SVGID_20_);fill:#CFE3F9;}
	.st14{clip-path:url(#SVGID_24_);fill:#CFE3F9;}
	.st15{fill-rule:evenodd;clip-rule:evenodd;fill:#CFE3F9;}
	.st16{fill:#3D84F1;}
	.st17{clip-path:url(#SVGID_26_);fill:#CFE3F9;}
	.st18{fill:none;stroke:#3D84F1;stroke-width:2;stroke-linejoin:round;stroke-miterlimit:10;}
	.st19{clip-path:url(#SVGID_28_);fill:#CFE3F9;}
</style>
<g>
	<path class="st11" d="M18.659,4.98c-0.894-1.532-2.107-2.745-3.639-3.639C13.487,0.447,11.814,0,10,0
		C8.186,0,6.512,0.447,4.98,1.341C3.448,2.235,2.235,3.448,1.341,4.98C0.447,6.513,0,8.186,0,10c0,2.179,0.636,4.138,1.908,5.879
		c1.272,1.74,2.914,2.945,4.928,3.613c0.234,0.044,0.408,0.013,0.521-0.091c0.113-0.104,0.169-0.234,0.169-0.39
		c0-0.026-0.002-0.26-0.007-0.703c-0.004-0.443-0.007-0.829-0.007-1.159L7.213,17.2c-0.191,0.035-0.432,0.05-0.723,0.046
		c-0.291-0.004-0.592-0.035-0.905-0.091c-0.313-0.056-0.603-0.186-0.872-0.39c-0.269-0.204-0.46-0.471-0.573-0.801l-0.13-0.3
		C3.923,15.465,3.787,15.243,3.6,15c-0.187-0.243-0.375-0.408-0.566-0.495L2.943,14.44c-0.061-0.043-0.117-0.096-0.169-0.156
		c-0.052-0.061-0.091-0.121-0.117-0.182c-0.026-0.061-0.004-0.111,0.065-0.15c0.07-0.039,0.195-0.058,0.378-0.058l0.26,0.039
		c0.174,0.035,0.388,0.139,0.645,0.312c0.256,0.174,0.466,0.399,0.631,0.677c0.2,0.356,0.44,0.627,0.723,0.814
		c0.282,0.187,0.566,0.28,0.853,0.28s0.534-0.022,0.742-0.065c0.208-0.043,0.404-0.109,0.586-0.195
		c0.078-0.582,0.291-1.029,0.638-1.341c-0.495-0.052-0.94-0.13-1.335-0.234c-0.395-0.104-0.803-0.273-1.224-0.508
		c-0.421-0.234-0.771-0.525-1.048-0.872c-0.278-0.347-0.506-0.803-0.683-1.367C3.709,10.867,3.62,10.216,3.62,9.479
		c0-1.051,0.343-1.944,1.029-2.682C4.327,6.006,4.357,5.121,4.739,4.14c0.252-0.078,0.625-0.02,1.12,0.176
		c0.495,0.195,0.857,0.363,1.087,0.501C7.177,4.956,7.361,5.073,7.5,5.169C8.307,4.943,9.141,4.83,10,4.83
		c0.859,0,1.693,0.113,2.5,0.338l0.495-0.312c0.338-0.208,0.738-0.399,1.198-0.573c0.46-0.174,0.812-0.221,1.055-0.143
		c0.39,0.981,0.425,1.866,0.104,2.656c0.686,0.738,1.029,1.632,1.029,2.682c0,0.738-0.089,1.391-0.267,1.959
		c-0.178,0.569-0.408,1.024-0.69,1.367c-0.282,0.343-0.634,0.632-1.055,0.866c-0.421,0.234-0.829,0.404-1.224,0.508
		c-0.395,0.104-0.84,0.183-1.335,0.235c0.451,0.39,0.677,1.007,0.677,1.849v2.747c0,0.156,0.054,0.286,0.163,0.39
		c0.108,0.104,0.28,0.135,0.514,0.091c2.014-0.668,3.657-1.873,4.928-3.613c1.271-1.74,1.907-3.7,1.907-5.879
		C20,8.186,19.552,6.513,18.659,4.98z"/>
</g>
</svg>
