<?xml version="1.0" encoding="utf-8"?>
<!-- Generator: Adobe Illustrator 21.0.0, SVG Export Plug-In . SVG Version: 6.00 Build 0)  -->
<svg version="1.1" id="Слой_1" xmlns="http://www.w3.org/2000/svg" xmlns:xlink="http://www.w3.org/1999/xlink" x="0px" y="0px"
	 viewBox="0 0 20 19.511" style="enable-background:new 0 0 20 19.511;" xml:space="preserve">
<style type="text/css">
	.st0{fill:#CFE3F9;}
	.st1{clip-path:url(#SVGID_2_);fill:#CFE3F9;}
	.st2{clip-path:url(#SVGID_4_);fill:#CFE3F9;}
	.st3{fill:none;stroke:#3D84F1;stroke-width:2;stroke-linecap:round;stroke-linejoin:round;stroke-miterlimit:10;}
	.st4{fill:none;stroke:#3D84F1;stroke-width:2;stroke-miterlimit:10;}
	.st5{clip-path:url(#SVGID_6_);fill:#CFE3F9;}
	.st6{clip-path:url(#SVGID_8_);fill:#CFE3F9;}
	
		.st7{clip-path:url(#SVGID_10_);fill:none;stroke:#3D84F1;stroke-width:2;stroke-linecap:round;stroke-linejoin:round;stroke-miterlimit:10;}
	.st8{clip-path:url(#SVGID_12_);fill:#CFE3F9;}
	.st9{fill-rule:evenodd;clip-rule:evenodd;fill:none;}
	.st10{clip-path:url(#SVGID_14_);fill:#CFE3F9;}
	.st11{fill:#FFFFFF;}
	.st12{clip-path:url(#SVGID_18_);fill:#FFFFFF;stroke:#3D84F1;stroke-width:2;stroke-miterlimit:10;}
	.st13{clip-path:url(#SVGID_20_);fill:#CFE3F9;}
	.st14{clip-path:url(#SVGID_24_);fill:#CFE3F9;}
	.st15{fill-rule:evenodd;clip-rule:evenodd;fill:#CFE3F9;}
	.st16{fill:#3D84F1;}
	.st17{clip-path:url(#SVGID_26_);fill:#CFE3F9;}
	.st18{fill:none;stroke:#3D84F1;stroke-width:2;stroke-linejoin:round;stroke-miterlimit:10;}
	.st19{clip-path:url(#SVGID_28_);fill:#CFE3F9;}
</style>
<g>
	<g>
		<path class="st11" d="M20,3.555c-0.736,0.326-1.526,0.547-2.356,0.646c0.847-0.507,1.496-1.312,1.803-2.268
			c-0.795,0.47-1.672,0.811-2.607,0.996c-0.749-0.799-1.813-1.296-2.994-1.296c-2.266,0-4.103,1.837-4.103,4.102
			c0,0.321,0.036,0.635,0.106,0.935C6.44,6.498,3.417,4.864,1.393,2.382C1.04,2.987,0.839,3.692,0.839,4.444
			c0,1.423,0.725,2.68,1.825,3.414C1.991,7.836,1.358,7.651,0.805,7.344v0.051c0,1.987,1.415,3.646,3.291,4.023
			c-0.344,0.092-0.706,0.144-1.081,0.144c-0.265,0-0.521-0.026-0.772-0.076c0.522,1.631,2.037,2.817,3.832,2.849
			c-1.403,1.1-3.173,1.753-5.095,1.753c-0.331,0-0.657-0.02-0.979-0.056c1.816,1.166,3.972,1.846,6.289,1.846
			c7.547,0,11.673-6.251,11.673-11.673l-0.014-0.531C18.754,5.099,19.451,4.377,20,3.555z"/>
	</g>
</g>
</svg>
