<?xml version="1.0" encoding="utf-8"?>
<!-- Generator: Adobe Illustrator 21.0.0, SVG Export Plug-In . SVG Version: 6.00 Build 0)  -->
<svg version="1.1" id="icon-hamburger" xmlns="http://www.w3.org/2000/svg" xmlns:xlink="http://www.w3.org/1999/xlink" x="0px"
	 y="0px" viewBox="0 0 552 260" style="enable-background:new 0 0 552 260;" xml:space="preserve">
<style type="text/css">
	.st0{fill:#FFFFFF;}
</style>
<g>
	<path class="st0" d="M254.195,91.281H80.649V66.535h162.623C220.571,26.541,178.325,0,129.883,0
		C69.364,0,18.494,41.438,4.013,97.539C1.39,107.843,0,118.642,0,129.766C0,201.687,58.208,260,130,260s130-58.313,130-130.234
		c0-13.739-2.117-26.971-6.052-39.409L254.195,91.281z M129.922,193.126H80.519V168.38h49.532v25.396L129.922,193.126z
		 M179.455,143.375H80.532v-26.047h98.922v26.047H179.455z"/>
	<g>
		<path class="st0" d="M396.754,138.254h-45.489l-10.322,28.146h-8.878l37.919-100.2h8.052l37.919,100.2h-8.809L396.754,138.254z
			 M353.88,131.097h40.19l-20.096-54.573L353.88,131.097z"/>
		<path class="st0" d="M448.919,154.564l21.746-62.625h8.878l-31.794,87.125l-1.652,3.854c-4.084,9.038-10.392,13.558-18.925,13.558
			c-1.973,0-4.084-0.322-6.331-0.964l-0.069-6.813l4.267,0.413c4.037,0,7.306-0.998,9.807-2.993
			c2.501-1.996,4.622-5.426,6.366-10.289l3.647-10.047L416.78,91.939h9.016L448.919,154.564z"/>
		<path class="st0" d="M538.245,166.401c-0.826-2.34-1.354-5.804-1.583-10.392c-2.891,3.763-6.572,6.665-11.046,8.705
			c-4.473,2.041-9.211,3.062-14.211,3.062c-7.157,0-12.949-1.995-17.377-5.987c-4.428-3.991-6.641-9.037-6.641-15.14
			c0-7.248,3.017-12.983,9.05-17.205c6.032-4.221,14.44-6.332,25.222-6.332h14.934v-8.464c0-5.322-1.641-9.508-4.92-12.56
			c-3.281-3.051-8.063-4.576-14.349-4.576c-5.736,0-10.484,1.469-14.246,4.404c-3.762,2.937-5.643,6.469-5.643,10.598l-8.259-0.069
			c0-5.918,2.753-11.045,8.259-15.381c5.505-4.335,12.272-6.503,20.301-6.503c8.304,0,14.854,2.076,19.648,6.228
			c4.793,4.153,7.26,9.944,7.397,17.376v35.235c0,7.203,0.757,12.594,2.271,16.172v0.826H538.245z M512.369,160.483
			c5.505,0,10.426-1.331,14.762-3.992c4.335-2.66,7.489-6.216,9.462-10.667v-16.378h-14.727c-8.214,0.092-14.636,1.594-19.27,4.507
			c-4.635,2.914-6.951,6.917-6.951,12.009c0,4.176,1.549,7.64,4.646,10.392C503.388,159.106,507.414,160.483,512.369,160.483z"/>
	</g>
</g>
</svg>
