<svg version="1" xmlns="http://www.w3.org/2000/svg" width="933.333" height="933.333" viewBox="0 0 700.000000 700.000000"><path d="M327.8.5c-.2.1-4.1.5-8.8.9-4.7.4-9.6.8-11 1-1.4.2-4.6.7-7.1 1-5.1.7-6.6 1-15.4 2.5-8.7 1.6-8.9 1.6-22 4.9-16.2 4.1-36.4 10.8-45.5 15-1.9.9-4 1.7-4.5 1.8-1.8.3-31.7 15.2-37 18.4-2.7 1.7-5.8 3.3-6.7 3.6-1 .4-1.8 1-1.8 1.5s-.5.9-1.1.9c-.9 0-9.9 5.7-19.4 12.4C102.5 96 63 142 37.4 192.5c-13.7 27-24.1 56.7-29.9 85-1.7 8.3-4.5 25.5-5 30.5-.2 1.9-.7 6.9-1.1 11-1.5 14.4-.9 59.3 1 71 .2 1.4.7 4.7 1 7.5 1.2 9.7 4.5 27.2 6 32.3.3.9.7 2.8 1 4.2.7 4.1 7.3 25.9 10.4 34.5C41 524.1 75.1 574 119.5 613.1c2.8 2.4 5.2 4.7 5.5 5 1.1 1.2 21.8 16.8 27.5 20.6 22.9 15.5 47.9 28.7 71.5 37.8 14.2 5.5 42.2 13.8 53.2 15.9 1.3.2 5 .9 8.3 1.5 3.3.6 7.1 1.3 8.5 1.6 1.4.3 5.2.8 8.5 1.1 3.3.3 6.3.8 6.6.9 1.5 1 22.7 2 40.9 2 18.8 0 34.1-.8 43-2.1 14.4-2.1 29.5-4.8 34.5-6.1 3.3-.8 6.7-1.6 7.5-1.8 9.7-2 35.6-10.6 50-16.7 93.2-39.3 164.6-116.3 197.1-212.5 2.1-6.2 3.6-11.3 3.4-11.3-.2 0 .3-1.9 1.1-4.2 2.7-7.9 8.8-36.5 10.3-49.3.5-4.4 1.3-10.5 1.7-13.5 1-7.9 1.2-53.3.3-61-.4-3.6-1-9-1.3-12-.9-7.5-1.3-10.4-2.6-18.5-1.7-11-2.1-12.8-2.5-13.5-.2-.4-.7-2.1-1-3.9-.7-4.1-2.9-12.9-5.2-21l-1.8-6.4H217V179h438l-6.7-10.8c-6.7-10.9-10.3-16.3-11.4-17.2-.3-.3-1.1-1.5-1.8-2.8-1.6-3-19.4-25.3-26.2-32.6-31.4-34.4-66.8-60.9-108.4-81.1-20.2-9.9-43.6-18.3-66.4-23.9-13.2-3.3-16.1-3.9-24.6-5.2-2.2-.3-5.8-.9-8-1.4-2.2-.5-7.4-1.2-11.5-1.5-4.1-.4-8.8-.9-10.5-1.1-3.3-.6-51.2-1.4-51.7-.9zM478.3 316h4.7v70H217v-69.9l7.3-.3c5.3-.2 221.9-.1 254 .2zM350.2 465.4c.2 6.7.2 21.7 0 33.3l-.3 21.3H216.5l.2-24.3c.1-13.3.2-28.3.3-33.3v-9h66.5l66.4-.1.3 12.1z"/></svg>