<svg xmlns="http://www.w3.org/2000/svg" xmlns:xlink="http://www.w3.org/1999/xlink" viewBox="0 0 51.88 43.34"><defs><style>.cls-1,.cls-3,.cls-5{fill:#cfe3f9;}.cls-1{clip-rule:evenodd;}.cls-2{fill:#fff;}.cls-3{fill-rule:evenodd;}.cls-4{clip-path:url(#clip-path);}.cls-6{fill:none;stroke:#3d84f1;stroke-miterlimit:10;stroke-width:2px;}.cls-7{fill:#3d84f1;}</style><clipPath id="clip-path"><path class="cls-1" d="M43.58,10.59c1.82-1.24,3.3-.47,3.3,1.75v22a4,4,0,0,1-4,4h-36c-2.21,0-2.53-1-.7-2.26Z"/></clipPath></defs><title>Ресурс 2</title><g id="Слой_2" data-name="Слой 2"><g id="Слой_1-2" data-name="Слой 1"><rect class="cls-2" x="9.88" y="4.34" width="14" height="4"/><path class="cls-3" d="M43.58,10.59c1.82-1.24,3.3-.47,3.3,1.75v22a4,4,0,0,1-4,4h-36c-2.21,0-2.53-1-.7-2.26Z"/><g class="cls-4"><rect class="cls-5" y="5" width="51.88" height="38.34"/></g><line class="cls-6" x1="41.88" y1="14.34" x2="29.84" y2="14.34"/><line class="cls-6" x1="41.88" y1="18.34" x2="23.88" y2="18.34"/><line class="cls-6" x1="41.88" y1="22.34" x2="26.85" y2="22.34"/><path class="cls-3" d="M45.1,4.09H28.85V0h-14V4.09h-4a4,4,0,0,0-4,4v.25h3v-4h14v4h19a4,4,0,0,1,4,4V34.08a4,4,0,0,0,4-4V9.84A5.74,5.74,0,0,0,45.1,4.09Z"/><path class="cls-7" d="M42.88,39.34h-36a5,5,0,0,1-5-5v-22a5,5,0,0,1,5-5h36a5,5,0,0,1,5,5v22A5,5,0,0,1,42.88,39.34Zm-36-30a3,3,0,0,0-3,3v22a3,3,0,0,0,3,3h36a3,3,0,0,0,3-3v-22a3,3,0,0,0-3-3Z"/><polygon class="cls-7" points="9.88 7.65 9.88 4.99 21.88 4.99 21.88 7.65 23.88 7.65 23.88 2.99 7.88 2.99 7.88 7.65 9.88 7.65"/></g></g></svg>