<svg xmlns="http://www.w3.org/2000/svg" xmlns:xlink="http://www.w3.org/1999/xlink" viewBox="0 0 46.98 40"><defs><style>.cls-1{fill:#cfe3f9;}.cls-2,.cls-6{fill:none;stroke:#3d84f1;stroke-width:2px;}.cls-2{stroke-linecap:round;stroke-linejoin:round;}.cls-3{clip-path:url(#clip-path);}.cls-4{clip-path:url(#clip-path-2);}.cls-5{clip-path:url(#clip-path-3);}.cls-6{stroke-miterlimit:10;}</style><clipPath id="clip-path"><rect class="cls-1" x="6" y="14" width="8" height="7"/></clipPath><clipPath id="clip-path-2"><rect class="cls-1" x="6" y="27" width="8" height="7"/></clipPath><clipPath id="clip-path-3"><rect class="cls-2" x="6" y="27" width="8" height="7"/></clipPath></defs><title>Ресурс 3</title><g id="Слой_2" data-name="Слой 2"><g id="Слой_1-2" data-name="Слой 1"><rect class="cls-2" x="6" y="1" width="8" height="7"/><rect class="cls-1" x="6" y="14" width="8" height="7"/><g class="cls-3"><rect class="cls-1" x="1" y="9" width="18" height="17"/></g><rect class="cls-1" x="6" y="27" width="8" height="7"/><g class="cls-4"><rect class="cls-1" x="1" y="22" width="18" height="17"/></g><rect class="cls-2" x="6" y="14" width="8" height="7"/><g class="cls-5"><rect class="cls-2" x="1" y="22" width="18" height="17"/></g><rect class="cls-2" x="6" y="27" width="8" height="7"/><rect class="cls-2" x="6" y="27" width="8" height="7"/><line class="cls-6" x1="18" y1="6" x2="46.98" y2="6"/><line class="cls-6" x1="18" y1="19" x2="46.98" y2="19"/><line class="cls-6" x1="18" y1="32" x2="46.98" y2="32"/></g></g></svg>