<svg xmlns="http://www.w3.org/2000/svg" viewBox="0 0 44 38.67"><defs><style>.cls-1{fill:#cfe3f9;fill-rule:evenodd;}.cls-2,.cls-3{fill:none;stroke:#3d84f1;stroke-width:2px;}.cls-2{stroke-miterlimit:10;}.cls-3{stroke-linecap:round;stroke-linejoin:round;}</style></defs><title>Ресурс 1</title><g id="Слой_2" data-name="Слой 2"><g id="Слой_1-2" data-name="Слой 1"><path class="cls-1" d="M39.63,3c1.83-1.24,3.31-.46,3.31,1.75v22a4,4,0,0,1-4,4H11L1.72,37.18l0-3.3c-2.21,0-1.26-4.14.57-5.38Z"/><line class="cls-2" x1="22" y1="11.09" x2="5.15" y2="11.09"/><line class="cls-2" x1="30.33" y1="7" x2="5.15" y2="7"/><line class="cls-2" x1="24.97" y1="15.19" x2="5.15" y2="15.19"/><path class="cls-3" d="M41,1H3A2,2,0,0,0,1,3V37.67L12,30H41a2,2,0,0,0,2-2V3A2,2,0,0,0,41,1Z"/></g></g></svg>