<svg xmlns="http://www.w3.org/2000/svg" xmlns:xlink="http://www.w3.org/1999/xlink" viewBox="0 0 40 45.67"><defs><style>.cls-1,.cls-2,.cls-4{fill:#cfe3f9;}.cls-1{clip-rule:evenodd;}.cls-2{fill-rule:evenodd;}.cls-3{clip-path:url(#clip-path);}.cls-5,.cls-6{fill:none;stroke:#3d84f1;stroke-width:2px;}.cls-5{stroke-linecap:round;stroke-linejoin:round;}.cls-6{stroke-miterlimit:10;}</style><clipPath id="clip-path"><path class="cls-1" d="M17.5,39.12a16.51,16.51,0,1,0,0-33c-9.11,0,3.67,7.39,3.67,16.51S8.39,39.12,17.5,39.12Z"/></clipPath></defs><title>Ресурс 5</title><g id="Слой_2" data-name="Слой 2"><g id="Слой_1-2" data-name="Слой 1"><path class="cls-2" d="M17.5,39.12a16.51,16.51,0,1,0,0-33c-9.11,0,3.67,7.39,3.67,16.51S8.39,39.12,17.5,39.12Z"/><g class="cls-3"><rect class="cls-4" x="8.11" width="32.01" height="45.23"/></g><circle class="cls-5" cx="17.5" cy="23.52" r="16.5"/><line class="cls-6" x1="23.78" y1="14.9" x2="14.59" y2="24.09"/><line class="cls-6" x1="26.67" y1="18.02" x2="17.48" y2="27.21"/><line class="cls-6" x1="27.88" y1="34.99" x2="42.44" y2="49.55"/><line class="cls-6" x1="20.54" y1="11.91" x2="15.65" y2="16.8"/><polygon class="cls-4" points="4.49 64.61 6.17 60.33 7.87 64.61 12.15 66.3 7.87 67.99 6.17 72.28 4.49 67.99 0.2 66.3 4.49 64.61"/></g></g></svg>