<svg xmlns="http://www.w3.org/2000/svg" viewBox="0 0 44.53 46.46"><defs><style>.cls-1{fill:#cfe3f9;}.cls-2{fill:none;stroke:#3d84f1;stroke-linejoin:round;stroke-width:2px;}</style></defs><title>Ресурс 6</title><g id="Слой_2" data-name="Слой 2"><g id="Слой_1-2" data-name="Слой 1"><path class="cls-1" d="M43.53,30.58V25.17s-1.8-.27-4.35-.61A13.77,13.77,0,0,0,37.57,21c1.61-2.1,2.73-3.62,2.73-3.62l-3.83-3.83s-1.59,1.17-3.75,2.83A13.44,13.44,0,0,0,29.32,15c-.36-2.73-.66-4.7-.66-4.7H26V23.84h0a4,4,0,0,1,0,8.08h0V45.46h2.71s.23-1.53.53-3.77a13.47,13.47,0,0,0,4.19-1.79c1.82,1.39,3.09,2.32,3.09,2.32L40.3,38.4s-1-1.34-2.42-3.22a13.6,13.6,0,0,0,1.53-4C41.83,30.84,43.53,30.58,43.53,30.58Z"/><polygon class="cls-1" points="3.14 18.21 4.38 15.07 5.62 18.21 8.77 19.45 5.62 20.69 4.38 23.84 3.14 20.69 0 19.45 3.14 18.21"/><polygon class="cls-1" points="8.77 4.29 10.46 0 12.15 4.29 16.43 5.97 12.15 7.67 10.46 11.95 8.77 7.67 4.48 5.97 8.77 4.29"/><circle class="cls-2" cx="25.95" cy="27.88" r="4.04"/><path class="cls-2" d="M22.59,15c.36-2.73.66-4.7.66-4.7h5.41s.3,2,.66,4.7a13.44,13.44,0,0,1,3.4,1.36c2.16-1.66,3.75-2.83,3.75-2.83l3.83,3.83S39.18,18.88,37.57,21a13.77,13.77,0,0,1,1.61,3.58c2.55.34,4.35.61,4.35.61v5.41s-1.7.26-4.12.59a13.6,13.6,0,0,1-1.53,4c1.44,1.88,2.42,3.22,2.42,3.22l-3.83,3.82s-1.27-.93-3.09-2.32a13.47,13.47,0,0,1-4.19,1.79c-.3,2.24-.53,3.77-.53,3.77H23.25s-.24-1.53-.54-3.77a13.32,13.32,0,0,1-4.18-1.79c-1.82,1.39-3.1,2.32-3.1,2.32L11.61,38.4s1-1.34,2.42-3.22a13.6,13.6,0,0,1-1.53-4c-2.43-.33-4.13-.59-4.13-.59V25.17s1.81-.27,4.36-.61A13.75,13.75,0,0,1,14.33,21c-1.6-2.1-2.72-3.62-2.72-3.62l3.82-3.83S17,14.7,19.18,16.36A13.5,13.5,0,0,1,22.59,15Z"/></g></g></svg>